<?xml version="1.0" encoding="UTF-8"?><svg id="Capa_2" xmlns="http://www.w3.org/2000/svg" viewBox="0 0 393.82 141.73"><defs><style>.cls-1{fill:#1d1d1b;}</style></defs><g id="Capa_1-2"><g><path class="cls-1" d="m105.61,4.91c-.82-.85-2.04-1.47-4.35-1.7-.27-.36-.59-.7-.97-1.03-1.54-1.31-3.71-2.18-7.72-2.18s-6.17.88-7.7,2.2c-.39.32-.71.66-.98,1.02-2.33.22-3.57.85-4.4,1.7-.82.85-1.11,1.72-1.02,2.65,0,0,2.76-.47,4.84-.8,2.83-.37,5.98-.66,9.26-.66s6.56.3,9.43.68c2.05.33,4.59.8,4.59.8l.03-.09c.09-.93-.18-1.74-1.01-2.59"/><path class="cls-1" d="m53.51,27.42c-.97.31-1.95.86-2.5,1.59-.35.47-.47.96-.36,1.5.12.6.48.95,1.07,1.04.71.11,1.7-.24,2.13-1.01.51-.93.25-2.07-.34-3.11m-15.64,9.38c-.07-3.01.3-10.34,5.27-13.27,2.54-1.5,6.33-2.29,9.38-.01.6.45,1.26,1.08,1.84,1.82.06,0,.13-.02.19-.02,2.54-.26,4.33.91,6.07,2.05.84.55,1.64,1.07,2.52,1.44,1.98.83,3.69.97,5.22.44,2.73-.96,4.42-3.66,4.29-6.89l1.86-.07c.15,4.05-2.02,7.47-5.54,8.71-1.98.7-4.13.54-6.56-.47-1.04-.44-1.95-1.03-2.82-1.6-1.39-.91-2.62-1.71-4.14-1.78.62,1.37.8,2.89.04,4.28-.75,1.37-2.45,2.19-4.04,1.96-1.36-.21-2.34-1.14-2.62-2.5-.21-1.05.03-2.07.69-2.96.69-.92,1.74-1.6,2.84-2.04-.32-.33-.65-.63-.97-.87-2.31-1.72-5.28-1.06-7.3.13-4.12,2.43-4.42,8.95-4.35,11.63l-1.87.04Z"/><path class="cls-1" d="m131.92,27.42c-.59,1.05-.84,2.19-.33,3.11.42.77,1.41,1.12,2.12,1.01.59-.09.95-.44,1.07-1.04.11-.54,0-1.03-.36-1.5-.54-.73-1.53-1.28-2.5-1.59m15.64,9.38l-1.87-.04c.06-2.69-.24-9.2-4.36-11.63-2.02-1.19-5-1.85-7.3-.13-.31.24-.65.54-.96.87,1.1.44,2.16,1.12,2.84,2.04.66.89.9,1.92.69,2.96-.28,1.37-1.26,2.3-2.62,2.5-1.59.24-3.29-.59-4.04-1.96-.77-1.4-.59-2.92.04-4.29-1.53.07-2.75.87-4.14,1.78-.87.57-1.78,1.16-2.82,1.6-2.43,1.01-4.58,1.17-6.55.47-3.52-1.23-5.69-4.65-5.54-8.71l1.87.07c-.12,3.23,1.56,5.94,4.3,6.89,1.52.54,3.23.39,5.21-.44.88-.37,1.68-.89,2.52-1.44,1.74-1.13,3.54-2.31,6.07-2.05.07,0,.13.01.2.02.58-.74,1.24-1.37,1.84-1.82,3.04-2.27,6.84-1.49,9.37.01,4.97,2.93,5.34,10.25,5.27,13.27"/><path class="cls-1" d="m151.29,44.4c-.18-.24-.85-1.06-1.8-3.52-.3-.77-.6-1.35-.87-1.78-.03.02-.06.03-.1.03h-3.84s-.07-.01-.1-.03c-.27.43-.57,1.01-.87,1.78-.96,2.46-1.62,3.28-1.8,3.52-.17.24-.31.42-.13.75.18.33,1.28,1.93,4.82,1.98,3.54-.05,4.64-1.65,4.82-1.98.18-.33.05-.51-.13-.75"/><path class="cls-1" d="m144.69,38.66h3.84c.08-.24.07-.56.07-.85,0-.54-.32-1.08-.86-1.08h-2.26c-.54,0-.86.55-.86,1.08,0,.29,0,.62.07.85h0Z"/><path class="cls-1" d="m147.91,65.79c-.18-.24-.85-1.06-1.8-3.52-.3-.77-.6-1.35-.87-1.78-.03.02-.06.03-.1.03h-3.84s-.07-.01-.1-.03c-.27.43-.56,1.01-.87,1.78-.96,2.46-1.62,3.28-1.8,3.52-.18.24-.31.42-.13.75.18.33,1.28,1.93,4.82,1.98,3.54-.05,4.64-1.65,4.82-1.98.18-.33.04-.51-.13-.75"/><path class="cls-1" d="m143.25,68.52s-.02,0-.02,0c-.02,0-.02,0-.03,0h.05Z"/><path class="cls-1" d="m141.31,60.05h3.84c.08-.24.07-.56.07-.85,0-.54-.32-1.08-.86-1.08h-2.26c-.54,0-.86.55-.86,1.08,0,.29,0,.62.07.85h0Z"/><path class="cls-1" d="m162.4,62.84c-.25-.17-1.16-.71-2.89-2.71-.55-.63-1.02-1.07-1.43-1.38-.02.03-.05.05-.08.06l-3.61,1.29s-.07.01-.11,0c-.1.49-.19,1.14-.21,1.96-.06,2.64-.41,3.63-.49,3.92-.08.29-.15.5.13.75.28.25,1.87,1.39,5.21.25,3.31-1.23,3.8-3.11,3.86-3.48.05-.37-.13-.49-.38-.66"/><path class="cls-1" d="m158.94,66.97s-.02,0-.03,0c0,0-.01,0-.02,0h.05Z"/><path class="cls-1" d="m154.22,59.65l3.61-1.29c0-.25-.13-.56-.23-.83-.18-.5-.67-.91-1.18-.73l-2.13.76c-.51.18-.62.81-.44,1.31.1.27.2.58.35.78,0,0,0,0,0,0"/><path class="cls-1" d="m175.57,87.05c-.25-.16-1.16-.71-2.89-2.71-.54-.62-1.02-1.07-1.42-1.38-.02.03-.05.05-.08.06l-3.61,1.29s-.07.01-.1,0c-.11.49-.19,1.14-.21,1.96-.06,2.64-.41,3.63-.5,3.92-.08.29-.15.5.13.75.29.25,1.87,1.39,5.21.25,3.31-1.23,3.8-3.11,3.86-3.48.05-.37-.13-.49-.38-.66"/><path class="cls-1" d="m172.12,91.19s-.02,0-.03,0c0,0-.01,0-.02,0l.04-.02Z"/><path class="cls-1" d="m167.4,83.87l3.61-1.29h0c0-.25-.13-.55-.23-.83-.18-.5-.67-.91-1.18-.73l-2.13.76c-.51.18-.62.8-.44,1.31.1.27.2.58.36.78h0Z"/><path class="cls-1" d="m158.85,90.49c-.19-.23-.89-1.02-1.95-3.44-.34-.76-.66-1.32-.95-1.74-.03.02-.06.04-.1.04l-3.83.17s-.07-.01-.1-.03c-.25.44-.52,1.03-.79,1.81-.85,2.5-1.48,3.35-1.64,3.59-.17.25-.29.43-.1.76.2.32,1.36,1.87,4.9,1.77,3.53-.21,4.56-1.85,4.73-2.19.16-.34.02-.51-.16-.74"/><path class="cls-1" d="m154.31,93.42s-.02,0-.02,0h-.03s.05,0,.05,0Z"/><path class="cls-1" d="m152,85.04l3.83-.17h0c.07-.24.04-.57.03-.86-.02-.53-.37-1.07-.91-1.04l-2.26.1c-.54.02-.84.59-.81,1.12.01.29.02.62.1.85h0Z"/><path class="cls-1" d="m145.49,91.77c-.18-.23-.89-1.02-1.95-3.44-.33-.76-.66-1.32-.95-1.74-.03.02-.06.04-.1.04l-3.84.16s-.07,0-.1-.03c-.25.44-.52,1.03-.79,1.81-.85,2.5-1.48,3.35-1.64,3.6-.17.25-.29.43-.1.75.19.32,1.37,1.87,4.9,1.77,3.53-.2,4.56-1.85,4.72-2.19.16-.34.02-.51-.17-.74"/><path class="cls-1" d="m140.95,94.7s-.02,0-.02,0h-.03.05Z"/><path class="cls-1" d="m138.64,86.32l3.84-.17h0c.06-.24.04-.57.03-.85-.02-.53-.37-1.07-.9-1.04l-2.26.1c-.54.02-.83.59-.81,1.12.01.29.02.62.11.85"/><path class="cls-1" d="m141.64,116.65c-.18-.24-.84-1.06-1.78-3.53-.3-.77-.6-1.35-.86-1.78-.03.02-.06.03-.1.03l-3.84-.02s-.07-.01-.1-.03c-.27.43-.57,1-.87,1.77-.97,2.46-1.63,3.28-1.81,3.51-.18.24-.31.42-.14.75.17.33,1.27,1.94,4.81,2,3.54-.04,4.65-1.63,4.83-1.96.18-.33.05-.51-.13-.75"/><path class="cls-1" d="m135.06,110.88l3.84.02h0c.08-.24.07-.57.07-.85,0-.53-.32-1.08-.86-1.09h-2.26c-.54,0-.86.54-.86,1.07,0,.29,0,.61.06.85h0Z"/><path class="cls-1" d="m154.2,116.14c-.18-.24-.84-1.06-1.79-3.53-.3-.77-.59-1.35-.86-1.78-.03.02-.06.03-.1.03h-3.84s-.07-.03-.1-.05c-.27.43-.57,1.01-.87,1.78-.97,2.46-1.63,3.28-1.82,3.51-.18.24-.31.42-.14.75.18.33,1.28,1.94,4.81,2,3.54-.04,4.65-1.63,4.83-1.96.18-.33.05-.51-.13-.75"/><path class="cls-1" d="m147.62,110.38h3.84s0,.01,0,.01c.08-.24.07-.56.07-.85,0-.54-.32-1.09-.86-1.09h-2.26c-.54,0-.86.54-.86,1.07,0,.29,0,.61.06.85h0Z"/><path class="cls-1" d="m168.79,115.34c-.17-.24-.84-1.06-1.78-3.53-.3-.77-.59-1.35-.86-1.78-.03.02-.06.03-.1.03h-3.84s-.07-.03-.1-.05c-.27.43-.57,1.01-.88,1.78-.97,2.46-1.64,3.28-1.81,3.51-.18.24-.31.42-.14.75.18.33,1.28,1.93,4.81,2,3.54-.04,4.65-1.63,4.82-1.96.18-.33.05-.51-.13-.75"/><path class="cls-1" d="m162.21,109.57l3.84.02c.08-.24.07-.56.07-.86,0-.53-.31-1.08-.85-1.09h-2.26c-.54,0-.86.54-.86,1.07,0,.29-.01.61.06.85h0Z"/><path class="cls-1" d="m185.2,114.41c-.18-.24-.84-1.06-1.78-3.53-.3-.78-.59-1.35-.86-1.78-.03.02-.06.03-.1.03h-3.84s-.07-.03-.1-.04c-.27.43-.57,1-.87,1.77-.97,2.46-1.63,3.28-1.81,3.52-.18.24-.31.42-.14.75.18.33,1.28,1.94,4.81,2,3.54-.04,4.65-1.63,4.82-1.96.18-.33.05-.51-.13-.75"/><path class="cls-1" d="m178.62,108.64l3.84.02c.08-.24.07-.56.07-.85,0-.54-.32-1.08-.86-1.09h-2.26c-.54-.01-.86.53-.86,1.07,0,.29-.01.62.06.85,0,0,0,0,0,0"/><polygon class="cls-1" points="144.13 58.84 142.28 58.65 143.69 45.13 145.54 45.32 144.13 58.84"/><polygon class="cls-1" points="154.99 58.52 147.78 45.67 149.41 44.77 156.62 57.62 154.99 58.52"/><polygon class="cls-1" points="141.45 85.36 139.59 85.22 140.93 66.9 142.79 67.04 141.45 85.36"/><polygon class="cls-1" points="153.09 84.49 143.11 68.4 144.7 67.43 154.68 83.52 153.09 84.49"/><polygon class="cls-1" points="154.8 84.16 152.96 83.85 156.22 64.84 158.07 65.15 154.8 84.16"/><polygon class="cls-1" points="168.19 82.87 158.38 65.45 160.01 64.54 169.82 81.97 168.19 82.87"/><polygon class="cls-1" points="137.85 110.03 136 109.82 138.05 92.05 139.9 92.27 137.85 110.03"/><polygon class="cls-1" points="148.69 109.79 141.66 93.79 143.38 93.05 150.4 109.05 148.69 109.79"/><polygon class="cls-1" points="150.44 109.65 148.64 109.18 153.51 90.96 155.32 91.44 150.44 109.65"/><polygon class="cls-1" points="163.25 108.89 153.6 91.65 155.23 90.75 164.88 107.99 163.25 108.89"/><polygon class="cls-1" points="164.96 108.71 163.17 108.17 169.43 87.96 171.21 88.5 164.96 108.71"/><polygon class="cls-1" points="179.63 108.02 169.48 85.99 171.17 85.22 181.33 107.25 179.63 108.02"/><path class="cls-1" d="m34.13,44.4c.17-.24.84-1.06,1.8-3.52.3-.77.6-1.35.87-1.78.03.02.06.03.1.03h3.84s.07-.01.1-.03c.27.43.57,1.01.87,1.78.96,2.46,1.62,3.28,1.8,3.52.18.24.31.42.13.75-.18.33-1.28,1.93-4.82,1.98-3.54-.05-4.64-1.65-4.82-1.98-.18-.33-.05-.51.13-.75"/><path class="cls-1" d="m40.73,38.66h-3.84c-.08-.24-.07-.56-.07-.85,0-.54.32-1.08.86-1.08h2.26c.54,0,.86.55.86,1.08,0,.29,0,.62-.07.85"/><path class="cls-1" d="m37.51,65.79c.18-.24.84-1.06,1.8-3.52.3-.77.6-1.35.87-1.78.03.02.06.03.1.03h3.84s.07-.01.1-.03c.27.43.57,1.01.86,1.78.96,2.46,1.62,3.28,1.81,3.52.17.24.3.42.13.75-.18.33-1.28,1.93-4.82,1.98-3.54-.05-4.64-1.65-4.82-1.98-.18-.33-.05-.51.13-.75"/><path class="cls-1" d="m42.16,68.52s.02,0,.02,0c.01,0,.02,0,.03,0h-.05Z"/><path class="cls-1" d="m44.11,60.05h-3.84c-.08-.24-.07-.56-.07-.85,0-.54.32-1.08.86-1.08h2.26c.54,0,.86.55.86,1.08,0,.29,0,.62-.07.85"/><path class="cls-1" d="m23.02,62.84c.25-.17,1.15-.71,2.89-2.71.55-.63,1.03-1.07,1.42-1.38.02.03.05.05.08.06l3.61,1.29s.07.01.1,0c.11.49.19,1.14.21,1.96.06,2.64.41,3.63.49,3.92.08.29.15.5-.13.75-.28.25-1.87,1.39-5.21.25-3.31-1.23-3.8-3.11-3.85-3.48-.05-.37.13-.49.38-.66"/><path class="cls-1" d="m26.47,66.97s.02,0,.02,0c0,0,.02,0,.02,0h-.04Z"/><path class="cls-1" d="m31.2,59.65l-3.61-1.29h0c0-.25.13-.56.23-.83.18-.5.67-.91,1.18-.73l2.13.76c.5.18.62.81.44,1.31-.1.27-.2.58-.36.78,0,0,0,0,0,0"/><path class="cls-1" d="m9.84,87.05c.25-.16,1.15-.71,2.89-2.71.55-.62,1.03-1.07,1.43-1.38.02.03.05.05.08.06l3.61,1.29s.07.01.1,0c.11.49.19,1.14.21,1.96.06,2.64.41,3.63.49,3.92.08.29.15.5-.13.75-.28.25-1.87,1.39-5.21.25-3.31-1.23-3.8-3.11-3.86-3.48-.05-.37.13-.49.38-.66"/><path class="cls-1" d="m13.3,91.19s.02,0,.02,0c0,0,.02,0,.02,0l-.04-.02Z"/><path class="cls-1" d="m18.02,83.87l-3.61-1.29h0c0-.25.13-.55.23-.83.18-.5.67-.91,1.18-.73l2.13.76c.51.18.62.8.44,1.31-.1.27-.2.58-.36.78h0Z"/><path class="cls-1" d="m26.57,90.49c.19-.23.89-1.02,1.95-3.44.33-.76.66-1.32.95-1.74.03.02.06.04.1.04l3.83.17s.07-.01.1-.03c.25.44.52,1.03.79,1.81.85,2.5,1.48,3.35,1.64,3.59.17.25.29.43.1.76-.2.32-1.37,1.87-4.9,1.77-3.53-.21-4.57-1.85-4.73-2.19-.16-.34-.02-.51.17-.74"/><path class="cls-1" d="m31.11,93.42s.02,0,.03,0h.02s-.05,0-.05,0Z"/><path class="cls-1" d="m33.42,85.04l-3.84-.17h0c-.06-.24-.04-.57-.03-.86.02-.53.37-1.07.91-1.04l2.26.1c.54.02.84.59.81,1.12-.01.29-.02.62-.11.85"/><path class="cls-1" d="m39.93,91.77c.18-.23.89-1.02,1.95-3.44.33-.76.66-1.32.95-1.74.02.02.06.04.1.04l3.83.16s.07,0,.1-.03c.25.44.52,1.03.79,1.81.85,2.5,1.48,3.35,1.64,3.6.17.25.29.43.1.75-.2.32-1.36,1.87-4.9,1.77-3.53-.2-4.56-1.85-4.72-2.19-.17-.34-.03-.51.17-.74"/><path class="cls-1" d="m44.47,94.7s.02,0,.02,0h.02-.04Z"/><path class="cls-1" d="m46.78,86.32l-3.83-.17h0c-.07-.24-.04-.57-.03-.85.02-.53.37-1.07.91-1.04l2.26.1c.54.02.84.59.81,1.12-.01.29-.02.62-.1.85h0Z"/><path class="cls-1" d="m43.77,116.65c.17-.24.84-1.06,1.79-3.53.29-.77.59-1.35.86-1.78.03.02.06.03.1.03l3.84-.02s.07-.01.1-.03c.27.43.57,1,.87,1.77.97,2.46,1.64,3.28,1.82,3.51.18.24.31.42.13.75-.18.33-1.27,1.94-4.81,2-3.54-.04-4.65-1.63-4.82-1.96-.18-.33-.05-.51.13-.75"/><path class="cls-1" d="m50.36,110.88l-3.84.02h0c-.08-.24-.07-.57-.07-.85,0-.53.32-1.08.85-1.09h2.26c.54,0,.86.54.87,1.07,0,.29,0,.61-.07.85"/><path class="cls-1" d="m31.21,116.14c.18-.24.84-1.06,1.78-3.53.3-.77.59-1.35.86-1.78.03.02.06.03.1.03h3.84s.07-.03.1-.05c.27.43.57,1.01.87,1.78.97,2.46,1.63,3.28,1.82,3.51.18.24.31.42.13.75-.18.33-1.28,1.94-4.81,2-3.54-.04-4.65-1.63-4.82-1.96-.18-.33-.05-.51.13-.75"/><path class="cls-1" d="m37.79,110.38h-3.84s0,.01,0,.01c-.08-.24-.07-.56-.07-.85,0-.54.31-1.09.85-1.09h2.26c.54,0,.86.54.87,1.07,0,.29,0,.61-.07.85h0Z"/><path class="cls-1" d="m16.63,115.34c.18-.24.84-1.06,1.78-3.53.3-.77.59-1.35.86-1.78.03.02.06.03.1.03h3.84s.07-.03.1-.05c.27.43.57,1.01.87,1.78.97,2.46,1.63,3.28,1.81,3.51.18.24.31.42.13.75-.18.33-1.27,1.93-4.81,2-3.54-.04-4.65-1.63-4.83-1.96-.18-.33-.05-.51.13-.75"/><path class="cls-1" d="m23.21,109.57l-3.84.02h0c-.08-.24-.07-.56-.07-.86,0-.53.31-1.08.85-1.09h2.26c.54,0,.86.54.87,1.07,0,.29,0,.61-.06.85h0Z"/><path class="cls-1" d="m.21,114.41c.18-.24.84-1.06,1.79-3.53.3-.78.59-1.35.86-1.78.02.02.06.03.1.03h3.84s.07-.03.1-.04c.27.43.57,1,.87,1.77.97,2.46,1.63,3.28,1.82,3.52.18.24.31.42.13.75-.18.33-1.27,1.94-4.81,2-3.54-.04-4.65-1.63-4.83-1.96-.18-.33-.05-.51.13-.75"/><path class="cls-1" d="m6.8,108.64l-3.84.02h0c-.08-.24-.07-.56-.07-.85,0-.54.32-1.08.86-1.09h2.26c.54-.01.86.53.86,1.07,0,.29,0,.62-.07.85,0,0,0,0,0,0"/><polygon class="cls-1" points="41.29 58.84 39.87 45.32 41.73 45.13 43.14 58.65 41.29 58.84"/><polygon class="cls-1" points="30.42 58.52 28.79 57.62 36 44.77 37.64 45.67 30.42 58.52"/><polygon class="cls-1" points="43.96 85.36 42.63 67.04 44.49 66.9 45.82 85.22 43.96 85.36"/><polygon class="cls-1" points="32.33 84.49 30.74 83.52 40.71 67.43 42.3 68.4 32.33 84.49"/><polygon class="cls-1" points="30.61 84.16 27.35 65.15 29.19 64.84 32.45 83.85 30.61 84.16"/><polygon class="cls-1" points="17.23 82.87 15.6 81.97 25.4 64.54 27.03 65.45 17.23 82.87"/><polygon class="cls-1" points="47.57 110.03 45.51 92.27 47.37 92.05 49.42 109.82 47.57 110.03"/><polygon class="cls-1" points="36.73 109.79 35.02 109.05 42.04 93.05 43.75 93.79 36.73 109.79"/><polygon class="cls-1" points="34.97 109.65 30.1 91.44 31.9 90.96 36.77 109.18 34.97 109.65"/><polygon class="cls-1" points="22.16 108.89 20.53 107.99 30.18 90.75 31.81 91.65 22.16 108.89"/><polygon class="cls-1" points="20.46 108.71 14.2 88.5 15.99 87.96 22.24 108.17 20.46 108.71"/><polygon class="cls-1" points="5.78 108.02 4.08 107.25 14.25 85.22 15.94 85.99 5.78 108.02"/><path class="cls-1" d="m68.65,67.02c-.13.34-.26.68-.38,1.02h49.09c-.12-.35-.25-.69-.39-1.02-1.26-3.21-2.92-6.13-4.89-8.66h-38.53c-1.98,2.53-3.63,5.45-4.9,8.66"/><path class="cls-1" d="m65.86,82.04c0,1.46.07,2.91.22,4.33.04.34.08.69.12,1.02h53.22c.04-.34.08-.68.12-1.02.14-1.42.22-2.87.22-4.33s-.07-2.91-.22-4.33h-53.46c-.14,1.42-.22,2.86-.22,4.33"/><path class="cls-1" d="m68.76,97.33c1.25,3.11,2.87,5.94,4.79,8.41h38.51c1.92-2.47,3.54-5.3,4.8-8.41.17-.42.33-.85.49-1.27h-49.07c.15.43.31.85.49,1.27"/><path class="cls-1" d="m92.57,117.22c-15.45,0-27.98-15.75-27.98-35.18s12.53-35.18,27.98-35.18,27.98,15.75,27.98,35.18-12.53,35.18-27.98,35.18m35.5-58.09c-2.69,0-4.93,1.31-6.53,2.78h0c-.31.28-.73.45-1.18.45-.97,0-1.76-.78-1.76-1.74s.79-1.74,1.76-1.74c.18,0,.37.03.54.08h0c.1-.08,3.43-2.94,5.29-4.79,1.9-1.88.35-3.59.35-3.59l-4.35-7.12c-.78-1.09-1.49-2-2.82-2-1.63,0-2.95,1.27-2.95,2.84,0,1.24.83,2.3,1.98,2.69v.02c-.44.17-1.15.37-1.65.37-1.24,0-2.34-.41-2.97-1.45,0,0-5.64-10.83-9.48-10.83h-11.68s-11.66.01-11.66.01c-3.85,0-9.48,10.83-9.48,10.83-.63,1.04-1.74,1.45-2.98,1.45-.49,0-1.21-.2-1.64-.37v-.02c1.15-.39,1.98-1.44,1.98-2.69,0-1.57-1.32-2.85-2.95-2.85-1.33,0-2.04.91-2.82,2l-4.35,7.12s-1.55,1.71.35,3.58c1.85,1.84,5.14,4.66,5.29,4.79h0c.17-.05.35-.08.53-.08.97,0,1.76.78,1.76,1.74s-.79,1.74-1.76,1.74c-.46,0-.88-.18-1.19-.47h0c-1.6-1.46-3.83-2.76-6.52-2.76-4.24,0-7.79.99-7.67,6.34,0,0,.25,4.96.14,5.59-.11.63,1.17,3.06,2.45,3.06s3.32,0,4.08-.35c.76-.35,2.04-1.04,2.39.06.35,1.1.99,3.46-.87,4.28-1.87.81-1.58-.23-2.57-.4-.99-.18-4.2-.29-4.08,1.56.11,1.85.29,2.02.11,3.29-.18,1.27-.41,4.57,1.52,5.26,1.92.7,2.44.87,2.51,1.39.06.52-1.81,1.5-2.22,1.67-3.06,1.3-3.17,4.39-3.17,4.39v8.86c0,.97,1.52,1.75,3.4,1.75,1,0,1.89-.22,2.51-.56.17-.09.31-.2.44-.3l.03-.03c1.06-.99,2.4-1.59,3.86-1.59,3.48,0,6.29,3.38,6.29,7.55,0,1.85-.55,3.54-1.47,4.85h-.02c.22-.33.34-.71.34-1.12,0-1.1-.9-1.99-2.01-1.99s-2.01.89-2.01,1.99v.05h0c.12,4.06,3.45,7.32,7.54,7.32,2.45,0,4.63-1.17,6.01-2.98h.04c.04,3.75,2.84,6.77,6.27,6.77,1.24,0,2.38-.39,3.36-1.06h0c.34,2.71,4.32,5.09,6.43,5.88h0c.46.12,1.47,1.37,1.93,1.96.73-1.09,1.19-1.59,1.5-1.81.08-.07.16-.13.21-.15,2.1-.77,5.99-3.23,6.43-5.89h.01c.97.67,2.12,1.06,3.35,1.06,3.44,0,6.23-3.02,6.28-6.77h.04c1.38,1.81,3.55,2.98,6.01,2.98,4.09,0,7.42-3.26,7.54-7.32h-.01v-.05c0-1.1-.9-1.99-2-1.99s-2.01.89-2.01,1.99c0,.41.12.79.34,1.11h-.02c-.91-1.3-1.47-2.99-1.47-4.84,0-4.16,2.82-7.54,6.29-7.54,1.45,0,2.79.59,3.86,1.59l.02.03c.12.11.27.21.44.3.62.35,1.52.56,2.51.56,1.88,0,3.41-.78,3.41-1.75v-8.86s-.11-3.1-3.17-4.39c-.41-.17-2.27-1.15-2.22-1.68.06-.52.58-.69,2.51-1.39,1.92-.69,1.69-3.99,1.52-5.26-.18-1.27,0-1.45.12-3.3.12-1.85-3.09-1.73-4.08-1.56-.99.17-.7,1.21-2.56.41-1.87-.81-1.23-3.18-.88-4.28.35-1.1,1.63-.41,2.39-.06.76.35,2.8.35,4.08.35s2.57-2.43,2.45-3.07c-.11-.63.14-5.59.14-5.59.12-5.35-3.44-6.34-7.68-6.34"/><path class="cls-1" d="m92.93,133.12l-.17.26-.19-.25c-.58-.77-1.27-1.58-1.66-1.91l.36,6.61c0,.18.15.32.33.32h.23l.56,3.31s0,.26.29.26.29-.26.29-.26l.55-3.31h.23c.18,0,.33-.14.33-.32l.36-6.64c-.25.19-.71.68-1.53,1.93Z"/><path class="cls-1" d="m84.33,4.72l-.05-.43c4.16-.45,4.68-.46,8.04-.54h.25s.01.42.01.42h-.25c-3.35.08-3.86.09-8,.54"/><path class="cls-1" d="m100.82,4.72c-4.14-.45-4.66-.46-8-.53h-.25s0-.43,0-.43h.25c3.36.07,3.88.09,8.04.54l-.05.43Z"/><g><path class="cls-1" d="m103.58,22.13c-.14-.53-.63-.92-1.21-.92s-1.07.39-1.21.93h-7.4v-3.55h5.73c.14.53.63.92,1.2.92s1.06-.39,1.21-.92c.53-.14.92-.62.92-1.2s-.4-1.05-.92-1.19c-.15-.53-.63-.92-1.21-.92s-1.06.39-1.2.92h-5.73v-2.92c.54-.14.93-.62.93-1.19s-.4-1.06-.93-1.2c-.14-.53-.63-.92-1.21-.92s-1.06.39-1.2.92c-.54.14-.93.62-.93,1.2s.39,1.05.93,1.19v2.92h-5.73c-.14-.53-.63-.92-1.2-.92s-1.07.39-1.21.92c-.53.14-.93.62-.93,1.19s.4,1.05.93,1.2c.14.53.63.92,1.21.92s1.06-.39,1.2-.92h5.73v3.55h-7.4c-.14-.54-.63-.93-1.21-.93s-1.06.39-1.2.92c-.54.14-.93.62-.93,1.19s.4,1.06.93,1.2c.14.53.63.92,1.2.92s1.07-.39,1.21-.92h7.4v3.56h2.4v-3.56h7.4c.14.53.63.92,1.21.92s1.07-.39,1.21-.92c.53-.14.93-.62.93-1.2s-.4-1.05-.93-1.19Z"/><g><path class="cls-1" d="m112.26,11.48c0-2.41-8.82-4.64-19.69-4.64s-19.69,2.23-19.69,4.64c0,1.64,4.1,3.07,10.15,3.82.35-.4.85-.64,1.41-.64.67,0,1.28.36,1.61.93h4.7v-1.9c-.57-.32-.93-.93-.93-1.6,0-.72.42-1.37,1.07-1.67.3-.63.96-1.06,1.68-1.06s1.38.42,1.68,1.06c.64.3,1.07.95,1.07,1.67,0,.67-.37,1.28-.93,1.6v1.9h4.7c.33-.56.94-.93,1.61-.93.56,0,1.06.24,1.41.64,6.05-.75,10.15-2.18,10.15-3.82Z"/><g><polygon class="cls-1" points="95.2 21.52 97.16 21.52 97.95 19.19 95.99 19.19 95.2 21.52"/><polygon class="cls-1" points="89.45 19.19 87.49 19.19 88.28 21.52 90.24 21.52 89.45 19.19"/></g></g><path class="cls-1" d="m103.58,24.52c-.14.53-.63.92-1.21.92s-1.07-.39-1.21-.92h-7.4v3.56h-2.4v-3.56h-7.4c-.14.53-.63.92-1.21.92s-1.06-.39-1.2-.92c-.54-.14-.93-.62-.93-1.2s.4-1.05.93-1.19c.14-.53.63-.92,1.2-.92s1.07.39,1.21.93h7.4v-3.55h-5.73c-.14.53-.63.92-1.2.92s-1.07-.39-1.21-.92c-.53-.14-.93-.62-.93-1.2s.4-1.05.93-1.19c.14-.53.63-.92,1.21-.92s1.06.39,1.2.92h5.73v-2.92c-.54-.14-.93-.62-.93-1.19s.39-1.06.93-1.2c.14-.53.62-.92,1.2-.92s1.06.39,1.21.92c.53.14.93.62.93,1.2s-.4,1.05-.93,1.19v2.92h5.73c.14-.53.63-.92,1.2-.92s1.06.39,1.21.92c.53.14.92.62.92,1.19s-.4,1.05-.92,1.2c-.15.53-.63.92-1.21.92s-1.06-.39-1.2-.92h-5.73v3.55h7.4c.14-.54.63-.93,1.21-.93s1.07.39,1.21.92c.53.14.93.62.93,1.19s-.4,1.06-.93,1.2Z"/></g><g><path class="cls-1" d="m94.24,28.84h-3.34c-.62,0-1.12.54-1.12,1.21v.39c0,.67.5,1.22,1.12,1.22h3.34c.62,0,1.13-.55,1.13-1.22v-.39c0-.67-.5-1.21-1.13-1.21Z"/><g><path class="cls-1" d="m94.24,28.84h-3.34c-.62,0-1.12.54-1.12,1.21v.39c0,.67.5,1.22,1.12,1.22h3.34c.62,0,1.13-.55,1.13-1.22v-.39c0-.67-.5-1.21-1.13-1.21Z"/><g><path class="cls-1" d="m95.33,26.92l.61-1.8h-1.56v3.12c.19.02.37.06.54.13.1-.45.24-.93.41-1.45Z"/><path class="cls-1" d="m90.75,28.08v-2.95h-1.25l.61,1.8c.16.48.29.93.39,1.36.08-.02.17-.03.26-.04v-.17Z"/></g></g></g><path class="cls-1" d="m101.08,52.68c.98-.97,2.56-.97,3.54,0,.98.97.98,2.54,0,3.51-.98.97-2.57.97-3.54,0-.98-.97-.98-2.54,0-3.51m3.72,3.69c1.08-1.07,1.08-2.8,0-3.86-1.08-1.06-2.82-1.06-3.9,0-1.08,1.07-1.08,2.79,0,3.86,1.08,1.06,2.82,1.06,3.9,0"/><path class="cls-1" d="m102.06,55.22v1.37c.51.19,1.07.19,1.58,0v-1.38h-1.58Z"/><path class="cls-1" d="m103.64,53.65v-1.38c-.51-.18-1.07-.18-1.59,0v1.38h1.59Z"/><path class="cls-1" d="m100.68,55.22h1.39v-1.57h-1.39c-.18.51-.18,1.06,0,1.57"/><path class="cls-1" d="m103.64,55.22h1.38c.19-.51.19-1.06,0-1.57h-1.38v1.57Z"/><path class="cls-1" d="m94.36,49.92c.98.97.98,2.55,0,3.51-.98.97-2.57.97-3.54,0-.98-.96-.98-2.54,0-3.51.97-.97,2.57-.97,3.54,0m-3.72,3.69c1.07,1.06,2.82,1.06,3.89,0,1.07-1.07,1.07-2.8,0-3.86-1.08-1.07-2.82-1.07-3.89,0-1.08,1.07-1.08,2.79,0,3.86"/><path class="cls-1" d="m91.8,50.89h-1.39c-.18.51-.18,1.06,0,1.57h1.38v-1.57Z"/><path class="cls-1" d="m93.38,52.46h1.38c.18-.51.18-1.06,0-1.57h-1.38v1.57Z"/><path class="cls-1" d="m91.8,49.52v1.37h1.58v-1.37c-.51-.18-1.07-.18-1.58,0"/><path class="cls-1" d="m91.8,52.46v1.38c.51.18,1.07.18,1.58,0v-1.38h-1.58Z"/><path class="cls-1" d="m80.26,56.19c-.98-.97-.98-2.54,0-3.51.97-.97,2.57-.97,3.54,0,.98.97.98,2.54,0,3.51-.98.97-2.57.97-3.54,0m3.72-3.69c-1.08-1.07-2.82-1.07-3.89,0-1.08,1.07-1.08,2.79,0,3.86,1.07,1.07,2.82,1.07,3.89,0,1.07-1.07,1.07-2.8,0-3.86"/><path class="cls-1" d="m82.82,55.22h1.39c.18-.51.18-1.06,0-1.57h-1.39v1.57Z"/><path class="cls-1" d="m81.24,53.65h-1.39c-.18.51-.18,1.06,0,1.57h1.38v-1.57Z"/><path class="cls-1" d="m82.82,56.59v-1.37h-1.58v1.37c.51.18,1.07.18,1.58,0"/><path class="cls-1" d="m82.82,53.65v-1.38c-.51-.18-1.07-.18-1.58,0v1.38h1.58Z"/><path class="cls-1" d="m72.35,74.75c-.98-.97-.98-2.54,0-3.51.98-.97,2.57-.97,3.54,0,.98.97.98,2.54,0,3.51-.98.97-2.56.97-3.54,0m3.72-3.69c-1.07-1.07-2.82-1.07-3.89,0-1.08,1.07-1.08,2.79,0,3.86,1.08,1.06,2.82,1.06,3.89,0,1.08-1.07,1.08-2.79,0-3.86"/><path class="cls-1" d="m74.91,73.78h1.39c.19-.51.19-1.06,0-1.57h-1.39v1.57Z"/><path class="cls-1" d="m73.33,72.21h-1.39c-.18.51-.18,1.06,0,1.57h1.39v-1.57Z"/><path class="cls-1" d="m74.91,75.15v-1.37h-1.58v1.37c.51.18,1.07.18,1.58,0"/><path class="cls-1" d="m74.91,72.21v-1.37c-.51-.19-1.07-.19-1.58,0v1.37h1.58Z"/><path class="cls-1" d="m108.8,74.75c-.98-.97-.98-2.54,0-3.51.98-.97,2.56-.97,3.54,0,.98.97.98,2.55,0,3.51-.98.97-2.56.97-3.54,0m3.72-3.69c-1.07-1.07-2.82-1.07-3.89,0-1.07,1.07-1.07,2.79,0,3.86,1.08,1.07,2.82,1.07,3.89,0,1.08-1.07,1.08-2.79,0-3.86"/><path class="cls-1" d="m111.36,73.78h1.38c.19-.51.19-1.06,0-1.57h-1.38v1.57Z"/><path class="cls-1" d="m109.78,72.21h-1.39c-.18.51-.18,1.06,0,1.57h1.39v-1.57Z"/><path class="cls-1" d="m111.36,75.15v-1.38h-1.58v1.38c.51.18,1.07.18,1.58,0"/><path class="cls-1" d="m111.36,72.21v-1.37c-.51-.19-1.07-.19-1.58,0v1.37h1.58Z"/><path class="cls-1" d="m108.8,93.69c-.98-.96-.98-2.54,0-3.51.98-.97,2.56-.97,3.54,0,.98.97.98,2.54,0,3.51-.98.97-2.56.97-3.54,0m3.72-3.68c-1.07-1.06-2.82-1.06-3.89,0-1.07,1.06-1.07,2.79,0,3.86,1.08,1.07,2.82,1.07,3.89,0,1.08-1.07,1.08-2.79,0-3.86"/><path class="cls-1" d="m111.36,92.72h1.38c.19-.51.19-1.06,0-1.57h-1.38v1.57Z"/><path class="cls-1" d="m109.78,91.15h-1.39c-.18.51-.18,1.06,0,1.57h1.39v-1.57Z"/><path class="cls-1" d="m111.36,94.09v-1.38h-1.58v1.38c.51.18,1.07.18,1.58,0"/><path class="cls-1" d="m111.36,91.15v-1.37c-.51-.19-1.07-.19-1.58,0v1.38h1.58Z"/><path class="cls-1" d="m72.36,93.69c-.98-.97-.98-2.54,0-3.51.98-.97,2.56-.97,3.54,0,.98.97.98,2.54,0,3.51-.98.97-2.56.97-3.54,0m3.72-3.68c-1.08-1.07-2.82-1.07-3.89,0-1.08,1.06-1.08,2.79,0,3.86,1.07,1.07,2.82,1.07,3.89,0,1.08-1.07,1.08-2.79,0-3.86"/><path class="cls-1" d="m74.92,92.72h1.39c.18-.51.18-1.06,0-1.57h-1.39v1.57Z"/><path class="cls-1" d="m73.34,91.15h-1.38c-.19.51-.19,1.06,0,1.57h1.38v-1.57Z"/><path class="cls-1" d="m74.92,94.09v-1.38h-1.58v1.38c.51.18,1.07.18,1.58,0"/><path class="cls-1" d="m74.92,91.15v-1.38c-.51-.18-1.07-.18-1.58,0v1.38h1.58Z"/><path class="cls-1" d="m80.29,111.6c-.98-.96-.98-2.54,0-3.51.97-.97,2.56-.97,3.54,0,.97.97.97,2.55,0,3.51-.98.97-2.57.97-3.54,0m3.72-3.68c-1.08-1.07-2.82-1.07-3.9,0-1.07,1.07-1.07,2.79,0,3.86,1.08,1.07,2.82,1.07,3.9,0,1.07-1.07,1.07-2.8,0-3.86"/><path class="cls-1" d="m82.86,110.63h1.39c.18-.5.18-1.06,0-1.57h-1.39v1.57Z"/><path class="cls-1" d="m81.27,109.06h-1.39c-.18.51-.18,1.06,0,1.57h1.39v-1.57Z"/><path class="cls-1" d="m82.86,112v-1.38h-1.58v1.38c.51.18,1.07.18,1.58,0"/><path class="cls-1" d="m82.86,109.06v-1.37c-.51-.19-1.07-.19-1.58,0v1.37h1.58Z"/><path class="cls-1" d="m90.52,114.36c-.98-.97-.98-2.54,0-3.51.98-.97,2.56-.97,3.54,0,.98.97.98,2.54,0,3.51-.98.97-2.56.97-3.54,0m3.72-3.68c-1.08-1.07-2.82-1.07-3.89,0-1.07,1.06-1.07,2.79,0,3.86,1.07,1.07,2.82,1.07,3.89,0,1.08-1.07,1.08-2.79,0-3.86"/><path class="cls-1" d="m93.08,113.39h1.38c.19-.51.19-1.06,0-1.57h-1.38v1.57Z"/><path class="cls-1" d="m91.5,111.83h-1.39c-.18.51-.18,1.06,0,1.57h1.39v-1.57Z"/><path class="cls-1" d="m93.08,114.77v-1.37h-1.58v1.37c.51.19,1.07.19,1.58,0"/><path class="cls-1" d="m93.08,111.83v-1.37c-.51-.19-1.07-.19-1.58,0v1.37h1.58Z"/><path class="cls-1" d="m101.08,111.6c-.98-.96-.98-2.54,0-3.51.98-.97,2.56-.97,3.54,0,.98.97.98,2.55,0,3.51-.98.97-2.57.97-3.54,0m3.72-3.68c-1.08-1.07-2.82-1.07-3.9,0-1.08,1.07-1.08,2.79,0,3.86,1.08,1.07,2.82,1.07,3.9,0,1.08-1.07,1.08-2.8,0-3.86"/><path class="cls-1" d="m103.64,110.63h1.38c.19-.5.19-1.06,0-1.57h-1.38v1.57Z"/><path class="cls-1" d="m102.06,109.06h-1.39c-.18.51-.18,1.06,0,1.57h1.39v-1.57Z"/><path class="cls-1" d="m103.64,112v-1.38h-1.58v1.38c.51.18,1.07.18,1.58,0"/><path class="cls-1" d="m103.64,109.06v-1.37c-.51-.19-1.07-.19-1.58,0v1.37h1.58Z"/><g><path class="cls-1" d="m245.88,69.49c-.23,0-.56.06-1,.15-.44.09-.79.22-1.07.4-.28.19-.46.57-.57,1.16-.1.58-.16,1.29-.16,2.14v7.5c0,.96-.2,1.79-.6,2.5-.4.7-.92,1.28-1.57,1.74-.64.44-1.32.75-2.03.94-.71.19-1.39.29-2.04.29-1.04,0-1.96-.14-2.77-.41-.81-.27-1.49-.64-2.04-1.1-.54-.46-.96-.99-1.23-1.59-.28-.59-.41-1.22-.41-1.87v-10.21c0-.29-.05-.52-.14-.71-.09-.19-.28-.37-.56-.53-.2-.11-.46-.2-.78-.27-.32-.07-.58-.11-.78-.13v-.87h7.19v.87c-.23,0-.51.04-.86.11-.35.06-.6.12-.76.18-.28.1-.46.26-.55.49-.09.23-.14.48-.14.74v9.53c0,.46.05.95.15,1.45.1.51.3.98.6,1.42.32.45.75.81,1.29,1.09.54.29,1.29.43,2.24.43.89,0,1.64-.14,2.25-.43.6-.28,1.08-.66,1.43-1.12.33-.44.57-.89.71-1.37.14-.48.21-.96.21-1.45v-7.07c0-.9-.06-1.63-.19-2.21-.13-.57-.32-.95-.57-1.12-.29-.2-.67-.36-1.16-.47-.49-.11-.87-.18-1.12-.19v-.87h7.06v.87Z"/><path class="cls-1" d="m260.2,85.89h-5.86v-.8c.19-.02.39-.03.61-.05.22-.02.41-.05.55-.1.23-.07.39-.2.5-.38.11-.18.16-.42.16-.71v-6.17c0-.85-.2-1.51-.6-1.97-.4-.46-.89-.69-1.47-.69-.43,0-.82.07-1.18.2-.36.13-.68.3-.95.49-.27.19-.48.39-.64.6-.16.21-.28.39-.35.52v6.9c0,.28.06.5.17.68.12.18.29.31.51.41.17.08.35.14.55.18.2.04.4.07.61.09v.8h-5.88v-.8c.19-.02.38-.03.58-.05.2-.02.37-.05.52-.1.23-.07.4-.2.51-.38.11-.18.16-.42.16-.71v-7.4c0-.28-.06-.53-.18-.76-.12-.23-.28-.42-.49-.56-.15-.1-.34-.17-.55-.21-.21-.05-.44-.07-.68-.09v-.8l3.99-.27.17.17v1.69h.06c.2-.2.44-.43.73-.7.29-.27.57-.49.83-.66.3-.19.66-.36,1.07-.48.41-.13.88-.2,1.4-.2,1.15,0,2.01.36,2.56,1.08.56.72.83,1.67.83,2.87v6.24c0,.29.05.51.15.69.1.18.26.31.5.41.19.08.36.14.5.17.14.03.34.06.59.07v.8Z"/><path class="cls-1" d="m267.49,85.89h-5.79v-.8c.19-.02.38-.03.58-.05.2-.02.37-.05.52-.1.23-.07.4-.2.51-.38.11-.18.16-.42.16-.71v-7.4c0-.26-.06-.5-.18-.71-.12-.21-.28-.39-.49-.54-.15-.1-.37-.18-.67-.25-.29-.07-.56-.11-.8-.13v-.8l4.23-.27.17.17v9.78c0,.28.05.52.16.71.11.19.28.32.51.41.18.07.35.13.52.18.17.04.36.07.57.09v.8Zm-1.52-16.88c0,.46-.15.87-.46,1.21-.3.34-.68.52-1.12.52-.41,0-.77-.16-1.08-.49-.3-.33-.46-.71-.46-1.13s.15-.83.46-1.17c.3-.33.66-.5,1.08-.5.46,0,.84.15,1.14.47.3.31.45.68.45,1.09Z"/><path class="cls-1" d="m280.83,74.63c-.37.07-.71.2-1.04.4-.33.2-.61.55-.85,1.05-.48,1.09-.97,2.22-1.48,3.4-.51,1.18-1.04,2.42-1.59,3.72-.16.37-.34.81-.52,1.33-.18.51-.35,1-.5,1.47h-.95c-.77-1.9-1.48-3.64-2.13-5.21-.65-1.57-1.32-3.18-2.02-4.82-.16-.37-.42-.66-.78-.87-.36-.21-.72-.34-1.09-.4v-.8h5.55v.85c-.24,0-.54.06-.91.15-.37.09-.55.22-.55.38,0,.03.02.09.06.19.04.1.08.21.12.35.33.83.8,1.98,1.41,3.46.61,1.48,1.1,2.68,1.48,3.59.29-.7.66-1.56,1.1-2.6.44-1.04.92-2.2,1.43-3.47.08-.22.16-.42.23-.62.07-.19.11-.38.11-.58,0-.14-.07-.26-.2-.37-.13-.11-.29-.21-.48-.29-.19-.08-.37-.14-.55-.18-.18-.04-.32-.07-.44-.09v-.78h4.59v.74Z"/><path class="cls-1" d="m292.01,83.07c-.5.96-1.18,1.72-2.02,2.29-.85.57-1.81.85-2.91.85-.96,0-1.81-.17-2.54-.51-.73-.34-1.32-.8-1.79-1.39-.47-.59-.82-1.27-1.05-2.05-.23-.78-.35-1.6-.35-2.47,0-.78.12-1.54.37-2.29.25-.75.61-1.43,1.09-2.03.46-.58,1.04-1.04,1.72-1.39.69-.35,1.46-.53,2.3-.53s1.63.14,2.25.41c.62.28,1.13.65,1.52,1.13.37.46.65.99.83,1.61.18.62.27,1.29.27,2.01v.8h-7.95c0,.79.07,1.51.22,2.15.15.64.39,1.21.71,1.7.32.47.73.84,1.24,1.12.51.27,1.12.41,1.83.41s1.34-.17,1.87-.51c.52-.34,1.03-.95,1.52-1.83l.85.52Zm-2.69-4.57c0-.45-.04-.94-.12-1.46-.08-.52-.2-.95-.37-1.3-.19-.37-.44-.68-.77-.91-.33-.23-.74-.35-1.25-.35-.85,0-1.56.35-2.12,1.06-.56.71-.87,1.69-.92,2.95h5.55Z"/><path class="cls-1" d="m302.58,75.44c0,.41-.1.78-.3,1.1-.2.32-.51.48-.94.48-.45,0-.8-.12-1.04-.35-.24-.23-.36-.49-.36-.78,0-.18.01-.34.04-.48.03-.15.05-.29.08-.44-.38,0-.83.15-1.34.46-.51.31-.95.75-1.3,1.31v6.98c0,.29.05.52.17.7.11.18.28.31.52.4.2.08.46.14.78.18.32.04.6.07.83.09v.8h-6.33v-.8c.19-.02.38-.03.58-.05.2-.02.37-.05.52-.1.23-.07.4-.2.51-.38.11-.18.16-.42.16-.71v-7.4c0-.25-.06-.5-.18-.74-.12-.24-.28-.44-.49-.58-.15-.1-.34-.17-.55-.21-.21-.05-.44-.07-.68-.09v-.8l3.99-.27.17.17v1.69h.06c.5-.66,1.06-1.16,1.68-1.5.62-.34,1.18-.51,1.69-.51s.93.17,1.25.5c.32.33.48.78.48,1.34Z"/><path class="cls-1" d="m311.52,80.01c.33.29.59.63.77,1.01.18.38.27.85.27,1.4,0,1.11-.42,2.02-1.25,2.72-.83.71-1.91,1.06-3.23,1.06-.7,0-1.34-.12-1.93-.38-.59-.25-1.01-.48-1.26-.7l-.24.79h-.91l-.12-4.17h.84c.07.32.2.69.41,1.11.21.42.47.81.77,1.15.32.36.7.66,1.14.9.44.25.94.37,1.49.37.78,0,1.38-.18,1.8-.53.42-.35.63-.86.63-1.52,0-.34-.07-.63-.2-.88-.13-.25-.33-.46-.59-.65-.27-.19-.59-.35-.98-.5-.39-.15-.82-.3-1.3-.45-.38-.11-.8-.27-1.27-.47-.47-.2-.87-.43-1.2-.7-.36-.29-.65-.63-.88-1.04-.23-.41-.34-.9-.34-1.46,0-.98.37-1.81,1.09-2.49.73-.68,1.71-1.02,2.93-1.02.47,0,.95.06,1.44.18.49.12.89.27,1.2.44l.28-.63h.87l.18,3.86h-.84c-.17-.86-.54-1.57-1.1-2.11-.56-.54-1.25-.81-2.06-.81-.66,0-1.19.17-1.57.5-.38.33-.57.74-.57,1.21,0,.37.06.67.19.91.12.24.31.45.56.62.24.16.55.31.92.46.37.14.83.3,1.37.48.54.17,1.04.37,1.51.6.48.23.87.48,1.18.75Z"/><path class="cls-1" d="m320.18,85.89h-5.79v-.8c.19-.02.38-.03.58-.05.2-.02.37-.05.52-.1.22-.07.39-.2.5-.38.11-.18.17-.42.17-.71v-7.4c0-.26-.06-.5-.18-.71-.12-.21-.28-.39-.49-.54-.16-.1-.38-.18-.67-.25-.29-.07-.56-.11-.8-.13v-.8l4.23-.27.17.17v9.78c0,.28.05.52.16.71.11.19.28.32.51.41.18.07.35.13.52.18.17.04.36.07.57.09v.8Zm-1.52-16.88c0,.46-.15.87-.46,1.21-.3.34-.68.52-1.12.52-.41,0-.78-.16-1.08-.49-.3-.33-.46-.71-.46-1.13s.15-.83.46-1.17c.3-.33.66-.5,1.08-.5.46,0,.84.15,1.14.47.29.31.44.68.44,1.09Z"/><path class="cls-1" d="m334.81,85.67l-4.2.27-.18-.17v-1.12l-.1-.02c-.42.47-.94.85-1.56,1.15-.62.3-1.26.45-1.91.45s-1.34-.15-1.97-.45c-.63-.31-1.19-.73-1.66-1.29-.48-.56-.86-1.23-1.14-2.02-.28-.79-.42-1.65-.42-2.6,0-.87.15-1.69.45-2.47.3-.78.71-1.46,1.24-2.04.49-.54,1.1-.98,1.81-1.3.72-.33,1.45-.49,2.19-.49.56,0,1.11.07,1.65.21.54.14,1,.32,1.39.54v-4.18c0-.34-.06-.65-.17-.94-.12-.28-.27-.49-.47-.64-.23-.16-.54-.27-.92-.34-.38-.07-.8-.12-1.25-.15v-.75l4.92-.27.18.18v16.17c0,.29.05.53.16.72.11.2.27.37.48.5.15.1.38.16.67.18.29.03.56.04.8.05v.8Zm-4.4-2.11v-7.02c-.07-.21-.17-.44-.32-.68-.15-.24-.33-.47-.55-.67-.23-.2-.51-.37-.82-.51-.32-.13-.69-.2-1.11-.2-.48,0-.93.12-1.34.38-.41.25-.77.61-1.09,1.08-.3.46-.54,1.03-.71,1.73-.17.7-.26,1.48-.26,2.33,0,.68.06,1.3.19,1.86.13.55.35,1.07.66,1.55.28.45.64.82,1.09,1.1.44.28.97.41,1.57.41.65,0,1.19-.14,1.61-.43.42-.28.78-.6,1.07-.94Z"/><path class="cls-1" d="m347.34,85.67c-.38.14-.71.25-1,.33-.29.09-.62.13-.98.13-.63,0-1.14-.15-1.51-.45-.38-.3-.62-.73-.72-1.3h-.07c-.53.58-1.09,1.03-1.7,1.34-.61.31-1.33.46-2.19.46-.9,0-1.64-.28-2.22-.83-.58-.55-.87-1.27-.87-2.17,0-.46.07-.88.2-1.24.13-.36.32-.69.58-.99.2-.24.47-.46.8-.65.33-.19.65-.34.94-.46.36-.13,1.1-.39,2.22-.76,1.11-.38,1.87-.67,2.26-.88v-1.21c0-.11-.02-.31-.07-.61-.04-.3-.14-.58-.28-.85-.16-.3-.39-.56-.69-.78-.3-.22-.72-.33-1.26-.33-.37,0-.72.06-1.04.19-.32.12-.54.26-.68.39,0,.16.04.4.12.72.07.32.11.61.11.88,0,.29-.13.54-.38.78-.25.23-.61.35-1.06.35-.41,0-.71-.14-.9-.43-.19-.29-.29-.61-.29-.97s.13-.73.4-1.07c.27-.34.61-.64,1.03-.91.37-.23.81-.42,1.33-.58.52-.16,1.03-.24,1.52-.24.68,0,1.28.04,1.78.14.51.09.97.29,1.38.6.41.3.73.71.94,1.22.22.52.32,1.18.32,1.99,0,1.16-.01,2.19-.04,3.08-.03.9-.04,1.88-.04,2.94,0,.32.05.57.16.75.11.19.28.35.5.47.12.08.31.12.58.12s.53.01.81.01v.78Zm-4.25-6.42c-.69.2-1.29.4-1.81.6-.52.2-1,.44-1.45.73-.4.28-.73.6-.96.98-.24.38-.35.83-.35,1.35,0,.67.18,1.17.53,1.49s.8.48,1.34.48c.58,0,1.08-.14,1.52-.42.44-.28.81-.61,1.11-.99l.07-4.21Z"/><path class="cls-1" d="m361.67,85.67l-4.2.27-.18-.17v-1.12l-.1-.02c-.42.47-.94.85-1.56,1.15-.62.3-1.26.45-1.91.45s-1.34-.15-1.97-.45c-.64-.31-1.19-.73-1.66-1.29-.48-.56-.86-1.23-1.14-2.02-.28-.79-.42-1.65-.42-2.6,0-.87.15-1.69.45-2.47.3-.78.71-1.46,1.24-2.04.49-.54,1.1-.98,1.82-1.3.71-.33,1.45-.49,2.19-.49.56,0,1.11.07,1.64.21.54.14,1,.32,1.39.54v-4.18c0-.34-.06-.65-.17-.94-.11-.28-.27-.49-.47-.64-.23-.16-.53-.27-.92-.34-.39-.07-.8-.12-1.25-.15v-.75l4.92-.27.18.18v16.17c0,.29.05.53.16.72.11.2.27.37.48.5.16.1.38.16.67.18.29.03.56.04.8.05v.8Zm-4.4-2.11v-7.02c-.06-.21-.17-.44-.31-.68-.15-.24-.33-.47-.55-.67-.23-.2-.51-.37-.83-.51-.32-.13-.68-.2-1.1-.2-.49,0-.93.12-1.34.38-.41.25-.77.61-1.09,1.08-.3.46-.54,1.03-.71,1.73-.18.7-.26,1.48-.26,2.33,0,.68.06,1.3.2,1.86.13.55.35,1.07.65,1.55.28.45.65.82,1.09,1.1.44.28.96.41,1.57.41.65,0,1.18-.14,1.61-.43.43-.28.78-.6,1.08-.94Z"/><path class="cls-1" d="m381.99,85.67l-4.2.27-.19-.17v-1.12l-.1-.02c-.42.47-.94.85-1.56,1.15-.62.3-1.26.45-1.91.45s-1.34-.15-1.97-.45c-.63-.31-1.19-.73-1.66-1.29-.48-.56-.86-1.23-1.14-2.02-.28-.79-.42-1.65-.42-2.6,0-.87.15-1.69.45-2.47.3-.78.71-1.46,1.24-2.04.49-.54,1.1-.98,1.82-1.3.72-.33,1.45-.49,2.19-.49.56,0,1.11.07,1.65.21.54.14,1,.32,1.39.54v-4.18c0-.34-.06-.65-.17-.94-.11-.28-.27-.49-.47-.64-.23-.16-.54-.27-.92-.34-.38-.07-.8-.12-1.25-.15v-.75l4.92-.27.18.18v16.17c0,.29.05.53.16.72.11.2.27.37.48.5.16.1.38.16.67.18.29.03.56.04.8.05v.8Zm-4.4-2.11v-7.02c-.06-.21-.17-.44-.32-.68-.14-.24-.33-.47-.55-.67-.23-.2-.51-.37-.82-.51-.32-.13-.69-.2-1.11-.2-.48,0-.93.12-1.34.38-.41.25-.77.61-1.09,1.08-.3.46-.54,1.03-.71,1.73-.17.7-.26,1.48-.26,2.33,0,.68.06,1.3.2,1.86.13.55.35,1.07.65,1.55.28.45.64.82,1.09,1.1.44.28.96.41,1.57.41.65,0,1.19-.14,1.61-.43.42-.28.78-.6,1.07-.94Z"/><path class="cls-1" d="m393.82,83.07c-.5.96-1.18,1.72-2.02,2.29-.84.57-1.81.85-2.91.85-.96,0-1.81-.17-2.54-.51-.73-.34-1.32-.8-1.79-1.39-.47-.59-.82-1.27-1.05-2.05-.23-.78-.35-1.6-.35-2.47,0-.78.12-1.54.37-2.29.25-.75.61-1.43,1.09-2.03.46-.58,1.04-1.04,1.72-1.39.69-.35,1.45-.53,2.3-.53s1.63.14,2.25.41c.62.28,1.13.65,1.52,1.13.37.46.65.99.83,1.61.18.62.27,1.29.27,2.01v.8h-7.94c0,.79.07,1.51.22,2.15s.39,1.21.71,1.7c.32.47.73.84,1.24,1.12.51.27,1.12.41,1.82.41s1.34-.17,1.87-.51c.52-.34,1.03-.95,1.52-1.83l.85.52Zm-2.69-4.57c0-.45-.04-.94-.12-1.46-.08-.52-.2-.95-.37-1.3-.19-.37-.44-.68-.77-.91-.32-.23-.74-.35-1.25-.35-.85,0-1.56.35-2.12,1.06-.56.71-.87,1.69-.92,2.95h5.55Z"/></g><g><path class="cls-1" d="m242.36,100.57c.76.79,1.36,1.75,1.79,2.88.43,1.12.64,2.37.64,3.73s-.22,2.62-.66,3.74c-.44,1.12-1.05,2.07-1.83,2.86-.75.78-1.63,1.38-2.63,1.8-1,.42-2.06.63-3.19.63-1.2,0-2.31-.22-3.33-.67-1.02-.45-1.89-1.08-2.62-1.88-.73-.79-1.3-1.74-1.72-2.87-.42-1.12-.62-2.33-.62-3.61,0-1.4.22-2.65.66-3.75.44-1.1,1.04-2.05,1.81-2.86.76-.79,1.65-1.4,2.66-1.82,1.01-.42,2.07-.63,3.17-.63s2.22.22,3.24.64c1.01.43,1.89,1.04,2.63,1.81Zm-1.81,12.24c.45-.74.78-1.57.99-2.51.21-.93.31-1.97.31-3.13s-.11-2.27-.35-3.26c-.23-.99-.57-1.83-1.02-2.53-.45-.69-1.01-1.23-1.68-1.61-.67-.39-1.44-.58-2.31-.58-.97,0-1.8.22-2.48.67-.68.44-1.24,1.04-1.66,1.79-.41.71-.71,1.55-.91,2.51-.2.96-.3,1.96-.3,3.02,0,1.17.1,2.22.32,3.16.21.94.54,1.78,1,2.51.44.71.99,1.27,1.65,1.67.67.4,1.46.6,2.38.6.87,0,1.65-.2,2.35-.61.7-.41,1.27-.97,1.7-1.7Z"/><path class="cls-1" d="m258.5,104.54c-.37.06-.71.2-1.04.39s-.61.55-.85,1.05c-.48,1.09-.97,2.22-1.48,3.4-.51,1.18-1.04,2.42-1.6,3.72-.16.37-.33.81-.52,1.33-.18.51-.35,1-.5,1.47h-.95c-.77-1.91-1.48-3.64-2.13-5.21-.65-1.57-1.32-3.18-2.02-4.82-.16-.38-.42-.66-.78-.87-.36-.21-.72-.34-1.09-.4v-.8h5.55v.85c-.24,0-.55.06-.91.15-.37.09-.55.22-.55.38,0,.03.02.09.06.19s.08.21.12.35c.33.83.8,1.98,1.41,3.46.61,1.48,1.1,2.68,1.48,3.58.29-.7.66-1.56,1.1-2.6.44-1.04.92-2.2,1.43-3.47.08-.22.16-.42.23-.61.07-.19.11-.38.11-.58,0-.14-.07-.26-.2-.37-.13-.11-.29-.2-.48-.29-.19-.08-.37-.14-.55-.18-.18-.04-.32-.07-.44-.09v-.78h4.59v.74Z"/><path class="cls-1" d="m264.84,115.79h-5.79v-.8c.19-.02.38-.03.58-.05.2-.02.37-.05.52-.1.22-.07.39-.2.5-.38.11-.18.17-.42.17-.71v-7.4c0-.26-.06-.5-.18-.71-.12-.22-.28-.4-.49-.54-.16-.1-.38-.18-.67-.25-.29-.07-.56-.11-.8-.13v-.8l4.23-.27.17.17v9.78c0,.29.05.52.16.71.11.19.28.33.51.41.18.07.35.13.52.18.17.05.36.07.57.09v.8Zm-1.52-16.88c0,.46-.15.87-.46,1.21-.3.35-.68.52-1.12.52-.41,0-.78-.16-1.08-.49-.3-.33-.46-.71-.46-1.12,0-.45.15-.84.46-1.17.3-.33.66-.5,1.08-.5.46,0,.84.16,1.14.47.29.31.44.67.44,1.09Z"/><path class="cls-1" d="m276.98,112.97c-.5.96-1.18,1.72-2.02,2.29-.85.57-1.81.85-2.91.85-.97,0-1.81-.17-2.54-.51-.73-.34-1.33-.8-1.79-1.39-.47-.58-.82-1.27-1.05-2.04-.23-.78-.35-1.6-.35-2.47,0-.78.13-1.54.37-2.29.25-.75.61-1.43,1.09-2.03.46-.57,1.04-1.04,1.72-1.39.69-.35,1.46-.53,2.3-.53s1.63.14,2.25.41c.62.28,1.13.65,1.52,1.13.37.45.65.99.83,1.61.18.62.27,1.29.27,2.01v.8h-7.95c0,.79.08,1.5.23,2.14.15.64.39,1.21.71,1.7.32.47.73.85,1.24,1.12.51.27,1.12.41,1.83.41s1.34-.17,1.87-.51c.52-.34,1.03-.95,1.51-1.83l.85.52Zm-2.69-4.57c0-.45-.04-.94-.12-1.45-.08-.52-.2-.95-.37-1.3-.19-.37-.44-.67-.77-.91-.33-.23-.74-.35-1.25-.35-.85,0-1.56.36-2.12,1.06-.56.71-.87,1.69-.92,2.95h5.55Z"/><path class="cls-1" d="m291.5,115.57l-4.2.27-.18-.17v-1.12l-.1-.03c-.42.47-.94.86-1.56,1.16-.62.3-1.26.45-1.91.45s-1.34-.15-1.97-.46c-.63-.31-1.19-.73-1.66-1.29-.48-.56-.86-1.23-1.14-2.02-.28-.79-.42-1.66-.42-2.6,0-.87.15-1.69.45-2.47.3-.78.71-1.46,1.24-2.04.49-.55,1.1-.98,1.81-1.3.72-.32,1.45-.48,2.19-.48.56,0,1.11.07,1.65.21.54.14,1,.32,1.39.54v-4.18c0-.34-.06-.65-.17-.93-.12-.28-.27-.5-.47-.64-.23-.15-.54-.27-.92-.34-.38-.07-.8-.12-1.25-.15v-.76l4.92-.27.18.18v16.17c0,.29.05.53.16.72.11.2.27.37.48.51.15.1.38.16.67.18.29.02.56.04.8.05v.8Zm-4.4-2.11v-7.02c-.07-.21-.17-.44-.32-.68-.15-.24-.33-.46-.55-.67-.23-.2-.51-.37-.82-.5-.32-.13-.69-.2-1.11-.2-.48,0-.93.12-1.34.38-.41.25-.77.61-1.09,1.08-.3.45-.54,1.03-.71,1.73-.17.7-.26,1.48-.26,2.33,0,.68.06,1.3.19,1.86.13.55.35,1.07.66,1.55.28.46.64.82,1.09,1.1.44.28.97.41,1.57.41.65,0,1.19-.14,1.61-.43.42-.29.78-.6,1.07-.94Z"/><path class="cls-1" d="m304.38,109.67c0,.84-.13,1.67-.4,2.49-.27.82-.65,1.51-1.15,2.07-.56.65-1.21,1.13-1.95,1.45-.74.32-1.57.47-2.49.47-.76,0-1.49-.14-2.18-.43-.69-.29-1.3-.71-1.84-1.26-.53-.54-.95-1.21-1.26-1.99-.31-.78-.47-1.66-.47-2.63,0-1.88.54-3.41,1.64-4.6,1.09-1.19,2.52-1.79,4.29-1.79s3.07.57,4.16,1.7c1.09,1.13,1.64,2.64,1.64,4.52Zm-2.52.03c0-.61-.06-1.25-.18-1.93-.12-.68-.31-1.25-.55-1.72-.26-.5-.6-.91-1.02-1.21-.42-.31-.94-.46-1.55-.46s-1.16.15-1.6.46c-.44.31-.8.73-1.08,1.27-.26.49-.44,1.06-.55,1.69-.11.63-.16,1.25-.16,1.84,0,.78.06,1.5.19,2.16.13.66.33,1.25.61,1.77.28.52.62.93,1.04,1.22.42.29.94.44,1.55.44,1.02,0,1.82-.49,2.41-1.47.59-.98.89-2.34.89-4.06Z"/></g><g><path class="cls-1" d="m90.18,32.13c-.94,1.11-3.21,1.39-6.76.85-6.9-1.05-13.03-4.25-19.77-8.01-.93-.52-2.07-1.04-3.28-1.59-1.51-.69-3.15-1.43-4.64-2.29.36-.33.69-.62.99-.87,3.63-3.06,9.42-5.35,12.83-3.86,1.95.85,2.99,2.86,3.1,5.99l1.87-.07c-.18-4.85-2.39-6.82-4.21-7.62-4.28-1.87-10.68.67-14.79,4.15-.41.35-.88.77-1.39,1.24-.22-.16-.44-.32-.64-.49,1.03-.53,1.97-1.31,2.65-2.27,1.08-1.52,1.28-3.18.56-4.66-.77-1.58-2.37-2.35-4.18-2.02-1.93.36-3.39,1.85-3.54,3.63-.13,1.56.24,2.91.95,4.1-1.32-.26-2.55-.96-3.84-1.7-1.74-.99-3.54-2.02-5.76-2.05-2.08-.02-3.87.8-5.14,2.4-1.57,1.97-2.15,4.97-1.47,7.65.91,3.58,2.52,5.73,4.8,6.39,4.92,1.43,11.45-4.6,15.8-8.65,1.71,1.05,3.61,1.91,5.27,2.66,1.17.53,2.28,1.04,3.15,1.52,6.9,3.85,13.19,7.13,20.4,8.23,1.26.19,2.38.29,3.37.29,1.63,0,2.9-.27,3.87-.8v-2.12c-.06-.02-.13-.04-.19-.07,0,0,0,0-.01.02ZM52.85,12.44c.11-.02.27-.04.45-.04.54,0,1.28.18,1.71,1.05.53,1.08.07,2.11-.41,2.78-.62.87-1.58,1.57-2.54,1.94-.87-1.08-1.36-2.32-1.23-3.76.09-1.06,1.09-1.8,2.02-1.96Zm-13.81,16.83c-1.6-.46-2.79-2.17-3.52-5.07-.54-2.14-.1-4.52,1.12-6.06.88-1.11,2.12-1.69,3.59-1.69h.06c1.74.02,3.25.88,4.85,1.8,1.55.88,3.15,1.8,5.07,2.01.4.04.81.03,1.23-.03.4.39.83.75,1.29,1.1-3.82,3.55-9.89,9.05-13.69,7.94Z"/><path class="cls-1" d="m150.26,17c-1.27-1.6-3.05-2.42-5.14-2.4-2.22.03-4.02,1.05-5.77,2.05-1.29.74-2.51,1.43-3.84,1.7.71-1.19,1.08-2.54.95-4.1-.15-1.78-1.61-3.27-3.54-3.63-1.81-.33-3.41.44-4.18,2.02-.72,1.48-.53,3.13.56,4.66.68.96,1.63,1.74,2.66,2.27-.21.17-.42.33-.64.49-.52-.47-.98-.89-1.4-1.24-4.11-3.47-10.51-6.01-14.79-4.15-1.82.8-4.04,2.77-4.21,7.62l1.87.07c.12-3.12,1.16-5.14,3.1-5.99,3.41-1.49,9.2.8,12.83,3.86.3.25.63.54.99.87-1.49.86-3.12,1.61-4.64,2.29-1.21.55-2.35,1.07-3.28,1.59-6.74,3.76-12.87,6.96-19.77,8.01-3.54.54-5.82.26-6.76-.85-.04-.04-.06-.09-.09-.14-.12.08-.26.15-.41.2v1.94c1,.65,2.37.97,4.17.97.99,0,2.11-.1,3.37-.29,7.21-1.1,13.5-4.38,20.4-8.23.86-.48,1.97-.99,3.15-1.52,1.67-.76,3.56-1.62,5.28-2.66,4.35,4.05,10.87,10.08,15.8,8.65,2.28-.67,3.9-2.82,4.8-6.39.68-2.68.11-5.69-1.47-7.65Zm-19.42-.77c-.48-.67-.94-1.7-.4-2.78.43-.87,1.16-1.05,1.7-1.05.18,0,.34.02.45.04.94.17,1.93.9,2.02,1.96.13,1.44-.36,2.68-1.23,3.76-.97-.37-1.92-1.07-2.54-1.94Zm19.08,7.98c-.73,2.9-1.92,4.6-3.51,5.07-3.8,1.11-9.87-4.38-13.69-7.94.46-.35.9-.71,1.3-1.1.42.06.83.08,1.23.03,1.91-.21,3.52-1.12,5.07-2.01,1.6-.92,3.12-1.78,4.85-1.8h.06c1.46,0,2.7.58,3.59,1.69,1.22,1.54,1.66,3.92,1.12,6.06Z"/><rect class="cls-1" x="91" y="32.42" width="3.15" height="1.9"/></g></g></g></svg>